<?xml version="1.0" standalone="no"?>
<!DOCTYPE svg PUBLIC "-//W3C//DTD SVG 20010904//EN"
 "http://www.w3.org/TR/2001/REC-SVG-20010904/DTD/svg10.dtd">
<svg version="1.0" xmlns="http://www.w3.org/2000/svg"
 width="1024.000000pt" height="1024.000000pt" viewBox="0 0 1024.000000 1024.000000"
 preserveAspectRatio="xMidYMid meet">

<g transform="translate(0.000000,1024.000000) scale(0.100000,-0.100000)"
fill="#000000" stroke="none">
<path d="M7470 9341 c-30 -10 -70 -26 -89 -35 -51 -27 -128 -102 -180 -177
-39 -55 -50 -65 -66 -58 -11 4 -788 8 -1727 8 -1657 1 -1708 0 -1708 -18 0
-18 51 -18 1725 -17 1472 1 1724 -1 1720 -13 -13 -34 -25 -158 -19 -205 21
-180 127 -314 299 -377 49 -18 82 -23 180 -23 114 -1 124 1 196 32 127 55 219
159 261 295 16 55 19 85 15 155 -3 48 -9 98 -13 111 -6 21 -4 23 10 18 10 -4
168 -7 352 -7 l334 0 0 -265 c0 -216 3 -265 13 -265 8 0 19 -10 25 -22 8 -17
11 57 11 290 l1 312 -383 0 -383 0 -23 40 c-32 58 -117 147 -168 177 -107 63
-268 81 -383 44z m310 -72 c80 -38 164 -118 199 -192 39 -84 60 -169 43 -175
-10 -3 -10 -7 -1 -18 33 -40 -30 -204 -109 -282 -142 -143 -382 -163 -559 -47
-78 52 -144 152 -162 249 -7 40 -6 47 13 60 20 15 20 16 2 30 -40 32 14 193
95 280 87 95 171 128 319 123 88 -2 114 -7 160 -28z"/>
<path d="M7598 9265 c-8 -8 3 -55 13 -55 5 0 9 14 9 30 0 28 -9 38 -22 25z"/>
<path d="M7588 8909 c-22 -12 -23 -42 -3 -59 13 -11 20 -10 41 0 28 16 28 37
-1 56 -14 9 -25 10 -37 3z"/>
<path d="M7590 8525 c0 -28 4 -35 20 -35 15 0 20 7 20 29 0 17 -6 31 -16 35
-24 9 -24 9 -24 -29z"/>
<path d="M1778 8264 c-3 -1101 -2 -1175 15 -1187 7 -4 152 -7 322 -6 171 1
317 1 326 0 12 -1 18 -16 22 -64 8 -85 35 -154 108 -272 l62 -100 -18 -75
c-10 -41 -21 -78 -25 -83 -3 -4 -39 -16 -79 -27 -105 -30 -167 -65 -237 -134
-107 -107 -155 -238 -306 -830 -9 -38 -10 -38 -46 -32 -85 15 -289 19 -341 6
-62 -15 -112 -55 -144 -114 -20 -37 -22 -56 -21 -176 0 -88 8 -182 22 -270 12
-74 31 -209 42 -300 39 -320 81 -493 154 -638 l44 -87 1 -240 c1 -132 4 -463
7 -735 3 -272 5 -511 4 -530 0 -19 -23 -114 -50 -210 -27 -96 -52 -194 -56
-217 -6 -42 -6 -43 29 -58 20 -8 59 -15 86 -15 43 0 52 4 70 29 20 27 93 263
126 405 8 38 20 75 26 82 5 7 25 70 44 141 19 70 54 193 79 273 24 80 70 233
101 340 31 107 72 244 91 303 l36 108 31 -6 c117 -19 176 -26 283 -32 l121 -6
8 -216 c17 -482 21 -684 23 -1056 2 -383 3 -390 23 -407 15 -13 39 -18 78 -18
76 0 97 19 107 96 8 66 -3 1461 -12 1546 l-6 56 58 7 c114 14 105 18 128 -57
21 -66 40 -98 52 -85 3 3 -4 40 -17 82 -12 41 -20 77 -18 79 2 3 16 7 30 11
24 6 27 3 32 -27 32 -175 63 -295 103 -396 46 -117 94 -283 94 -328 0 -26 -21
-32 -38 -11 -6 7 -20 64 -31 127 -29 163 -76 320 -95 320 -2 0 -4 -46 -5 -103
-2 -109 15 -220 50 -327 24 -72 43 -100 70 -100 21 0 26 -29 33 -204 3 -82 9
-123 18 -133 8 -7 43 -18 79 -25 70 -12 79 -19 79 -62 0 -32 89 -315 114 -364
19 -36 49 -47 104 -37 58 11 92 35 92 66 0 15 -16 82 -35 149 -41 141 -75 274
-75 289 0 6 10 11 23 11 39 1 251 56 292 76 48 24 75 59 82 110 8 61 -19 87
-125 120 -99 30 -149 53 -174 81 -17 18 -16 20 12 37 17 9 30 21 30 25 0 5 -9
44 -20 87 -10 44 -37 167 -59 274 -72 351 -92 445 -97 461 -3 12 12 20 66 36
l71 21 11 -26 c37 -95 289 -892 345 -1092 19 -69 42 -130 50 -137 9 -7 28 -68
45 -145 37 -166 51 -198 87 -198 23 0 170 10 625 40 140 9 207 20 232 37 18
13 34 50 34 78 0 52 -33 80 -147 126 -138 54 -328 143 -336 157 -4 5 11 17 33
26 22 9 40 20 40 25 0 5 10 12 23 14 21 4 21 4 1 6 -29 1 -22 -20 -138 396
-13 50 -43 164 -66 255 -23 91 -61 228 -85 305 -24 77 -64 212 -89 300 -51
184 -88 255 -181 351 -97 99 -146 116 -505 174 -424 67 -506 81 -527 85 -21 5
-23 11 -23 74 0 37 2 70 5 73 3 3 27 1 53 -4 114 -22 137 -26 787 -122 55 -8
146 -20 201 -26 l101 -12 7 -171 c7 -169 19 -243 37 -232 5 4 9 93 9 200 l0
194 53 -6 c94 -10 85 29 89 -426 3 -296 7 -410 16 -431 10 -23 15 -27 25 -17
9 9 12 114 10 432 -1 279 2 419 9 419 31 0 283 -34 408 -55 80 -14 201 -32
270 -40 69 -9 195 -27 280 -40 85 -13 223 -33 305 -45 83 -12 266 -39 407 -62
l258 -41 0 -1446 c0 -1285 2 -1447 15 -1457 39 -29 187 -26 269 6 l26 10 0
485 c0 441 2 486 16 492 15 6 15 7 -1 19 -18 13 -18 54 -12 935 4 507 9 924
11 927 3 2 206 44 453 93 246 49 520 105 608 123 88 19 219 46 290 60 152 30
498 101 536 111 l26 6 7 -138 c4 -76 6 -363 5 -638 -1 -275 0 -507 2 -515 4
-13 -87 -15 -760 -18 -561 -1 -768 -5 -778 -14 -8 -6 -13 -25 -11 -42 3 -30 5
-31 50 -31 26 0 52 -5 58 -11 18 -18 24 -215 9 -299 -13 -74 -14 -75 -49 -85
-20 -5 -44 -16 -55 -25 -17 -13 -18 -16 -5 -25 10 -7 292 -10 885 -9 479 1
878 1 888 0 14 -1 17 -12 17 -71 l0 -70 -42 -1 c-24 -1 -429 -1 -900 0 -472 2
-858 0 -858 -4 0 -28 24 -43 79 -49 l59 -7 7 -65 c4 -36 4 -92 0 -124 -4 -35
-3 -60 3 -64 7 -4 6 -19 -1 -42 -8 -27 -23 -44 -59 -66 -35 -22 -48 -36 -48
-53 0 -46 13 -48 329 -53 l298 -5 -3 29 c-2 16 -5 120 -8 231 l-4 203 34 0 34
0 0 -208 c0 -173 -3 -211 -16 -230 l-16 -23 751 3 c553 2 753 6 762 15 24 24
-4 66 -71 103 -35 19 -63 38 -62 43 0 4 3 70 7 147 8 153 3 142 70 152 14 2
21 12 23 36 l3 32 -173 0 -174 0 7 63 c11 90 16 100 60 125 64 37 72 66 67
267 -3 190 -12 221 -65 227 -27 3 -28 5 -34 78 -9 106 -10 728 -2 1034 l6 258
26 10 c14 5 75 20 135 33 60 13 113 28 119 34 6 6 7 43 1 108 l-9 98 -95 7
c-52 4 -236 14 -407 22 -172 9 -331 19 -353 22 -39 6 -40 8 -40 46 0 57 -11
71 -87 106 -51 24 -96 35 -172 44 -85 10 -101 14 -97 27 2 9 41 124 85 256
106 318 201 633 201 668 0 17 5 27 15 27 73 0 128 118 95 205 -6 15 -25 44
-43 66 -28 34 -37 39 -74 39 -38 0 -54 10 -175 106 -335 266 -428 346 -459
391 -49 73 -69 92 -106 99 -27 5 -33 10 -27 23 16 39 44 134 44 152 0 27 -91
83 -187 115 -135 45 -156 30 -230 -173 -32 -89 -41 -104 -67 -115 -64 -26
-158 -133 -215 -245 -27 -54 -27 -85 2 -109 44 -39 147 -105 210 -134 71 -34
265 -81 297 -73 23 6 48 82 76 230 l17 92 38 -22 c21 -12 66 -44 99 -72 244
-204 383 -317 430 -350 94 -66 110 -84 110 -127 0 -22 -43 -167 -99 -336 -55
-163 -125 -380 -157 -482 -35 -114 -66 -194 -79 -208 -18 -19 -42 -27 -115
-38 -52 -7 -96 -11 -99 -8 -3 3 -7 107 -9 230 l-4 224 -59 0 c-32 0 -59 4 -59
9 0 5 14 38 31 74 16 36 32 83 34 104 2 21 15 86 29 144 29 117 31 145 16 154
-18 11 -37 -12 -61 -73 -12 -31 -25 -61 -29 -65 -4 -5 -21 6 -38 22 -42 43
-59 40 -72 -11 -6 -24 -17 -63 -25 -88 -8 -25 -17 -65 -21 -90 -12 -78 -20
-76 -40 10 -24 109 -30 116 -82 103 -45 -12 -62 -3 -62 32 0 17 -37 142 -45
153 -3 4 -147 -57 -161 -69 -11 -9 -11 -17 1 -47 7 -21 21 -68 29 -107 8 -38
29 -110 45 -160 16 -49 27 -93 24 -97 -2 -5 -17 -8 -34 -8 l-29 0 0 -250 0
-250 -57 6 c-32 3 -92 8 -133 12 l-76 7 17 142 c15 123 57 600 74 833 3 41 2
80 -2 87 -6 8 -204 12 -753 13 -914 3 -837 4 -849 -19 -6 -10 -22 -117 -36
-237 -15 -121 -37 -300 -51 -399 -13 -99 -29 -220 -34 -269 -5 -49 -13 -93
-17 -97 -5 -5 -67 -4 -138 1 -72 5 -209 15 -306 21 l-176 13 -13 33 c-6 19
-26 50 -43 70 -61 69 -147 89 -257 58 -30 -9 -100 -21 -155 -26 -90 -9 -101
-9 -110 6 -5 10 -42 68 -81 129 -39 61 -140 228 -224 371 -220 376 -257 423
-396 501 -77 43 -221 97 -235 88 -10 -6 -12 36 -3 60 3 9 18 16 33 16 84 0
155 54 202 155 37 77 48 138 56 302 l6 133 34 22 c107 72 132 216 62 356 -37
72 -55 78 -109 32 -62 -54 -66 -48 -74 113 -3 78 -6 484 -6 901 1 494 -3 763
-9 769 -7 7 -14 7 -23 -1 -31 -25 -1370 -22 -1470 3 l-28 7 -2 -1008z m1462
909 c3 -3 7 -124 8 -270 3 -219 1 -265 -10 -260 -173 76 -245 91 -423 91 -122
0 -152 -3 -236 -27 -123 -35 -177 -59 -267 -119 -143 -96 -249 -230 -298 -374
-23 -68 -27 -94 -26 -187 2 -131 20 -206 75 -310 76 -142 260 -367 299 -367 8
0 9 3 3 8 -15 11 -59 62 -54 62 10 0 69 -57 69 -67 0 -5 7 -10 15 -10 22 0 20
5 -32 62 -113 123 -166 189 -213 264 -194 313 -125 651 179 871 65 48 173 97
257 116 41 10 74 22 74 26 0 5 4 7 8 4 5 -3 39 -1 77 5 130 18 342 -25 445
-92 l60 -39 0 -548 c0 -413 3 -551 12 -560 22 -22 -1 -12 -88 38 -95 54 -137
64 -246 58 -88 -4 -143 -29 -177 -81 -17 -25 -32 -37 -48 -37 -39 0 -89 -26
-132 -69 -49 -49 -75 -98 -91 -173 l-11 -58 -223 0 c-123 0 -264 3 -314 6
l-91 7 2 1022 1 1022 696 -5 c382 -2 697 -7 700 -9z m-1030 -1623 c0 -5 -2
-10 -4 -10 -3 0 -8 5 -11 10 -3 6 -1 10 4 10 6 0 11 -4 11 -10z m841 -81 c19
-7 65 -30 103 -52 90 -54 158 -60 229 -24 l49 25 14 -34 c8 -18 14 -62 14 -98
0 -55 -4 -69 -27 -96 -32 -39 -90 -65 -163 -74 -81 -10 -104 -23 -140 -73 -26
-36 -35 -60 -42 -121 -15 -116 -17 -122 -37 -122 -20 0 -41 21 -64 65 -16 30
-16 30 -18 5 -2 -39 2 -64 14 -78 7 -10 1 -22 -24 -48 -19 -20 -45 -41 -59
-48 -34 -18 -111 -27 -165 -19 -43 5 -46 8 -89 82 -78 133 -106 203 -113 279
-13 160 87 332 194 332 26 0 43 11 86 55 l53 55 76 0 c41 0 90 -5 109 -11z
m4477 -234 c41 -12 152 -71 152 -80 0 -1 -18 -61 -40 -135 -22 -73 -44 -171
-50 -219 -12 -95 -41 -274 -45 -279 -2 -2 -29 17 -60 42 -94 77 -202 122 -320
134 l-66 7 46 70 c56 85 118 150 167 176 26 13 40 29 48 56 22 71 103 243 114
243 1 0 26 -7 54 -15z m-4218 -440 c-13 -90 -50 -175 -92 -210 -28 -23 -104
-45 -158 -45 -29 0 -30 -1 -30 -51 0 -49 -1 -51 -22 -45 -77 22 -174 38 -246
39 l-82 2 6 30 c17 91 16 90 99 92 90 2 169 34 230 92 22 21 52 41 67 45 34 8
55 46 63 117 10 81 22 112 58 147 23 22 44 32 72 34 l40 3 3 -85 c2 -47 -2
-121 -8 -165z m4427 127 c6 -4 17 -29 24 -55 6 -27 19 -52 28 -55 18 -8 113
-80 205 -158 34 -27 109 -87 168 -132 58 -45 128 -102 154 -125 41 -38 46 -47
40 -71 l-7 -28 -52 44 c-29 25 -101 84 -162 132 -173 137 -355 290 -355 298 0
4 -25 24 -55 44 -30 20 -55 42 -55 49 0 14 38 65 48 65 4 0 12 -4 19 -8z
m-437 -318 c147 -68 223 -134 130 -113 -56 13 -134 50 -213 101 -107 70 -59
76 83 12z m-4375 -214 c131 -31 293 -88 356 -123 59 -34 59 -34 34 -45 -97
-45 -169 -158 -210 -333 -11 -49 -11 -60 1 -70 7 -6 18 -9 24 -7 6 2 28 56 50
120 21 64 50 135 65 157 25 40 80 83 121 95 48 14 107 -63 301 -394 218 -371
370 -609 389 -610 6 0 23 9 37 20 15 12 52 25 84 30 32 5 100 16 151 24 75 13
99 13 129 3 51 -17 94 -80 101 -146 6 -65 -13 -96 -65 -105 -55 -11 -277 -63
-429 -102 -73 -19 -144 -34 -160 -34 -50 0 -112 40 -178 113 -106 118 -370
442 -493 605 -114 151 -144 177 -160 135 -8 -22 26 -85 115 -211 l73 -103 -16
-192 c-9 -106 -20 -244 -26 -307 -6 -63 -12 -232 -14 -375 l-4 -260 -48 -45
c-60 -55 -123 -90 -241 -134 l-89 -33 -16 46 c-43 123 -66 252 -92 506 -28
286 -55 407 -120 541 -87 180 -188 255 -370 275 -55 6 -120 13 -144 16 l-43 5
7 46 c9 59 114 430 156 547 43 123 63 160 120 221 117 123 383 178 604 124z
m5598 -112 c21 -25 21 -40 1 -80 -15 -29 -18 -30 -61 -25 -79 9 -93 51 -38
111 21 22 31 27 53 22 15 -4 35 -16 45 -28z m-106 -189 c7 -7 6 -25 -4 -62
-38 -133 -118 -392 -184 -592 -39 -121 -73 -229 -76 -240 -4 -17 -11 -20 -44
-17 -33 4 -39 7 -33 21 20 46 122 347 199 586 47 149 90 280 95 293 10 24 29
29 47 11z m-2024 -9 c349 0 446 -3 449 -12 3 -7 -6 -103 -18 -213 -13 -110
-30 -268 -38 -352 -9 -83 -22 -207 -31 -274 -8 -68 -15 -141 -15 -163 l0 -39
-147 7 c-151 7 -367 25 -598 51 -125 14 -305 27 -559 41 l-119 6 7 52 c3 28
11 97 16 154 6 57 26 221 46 365 19 144 37 285 40 312 3 28 8 56 10 64 4 12
45 13 259 7 139 -4 454 -6 698 -6z m534 -22 c-4 -18 -9 -71 -12 -118 -8 -115
-31 -365 -56 -595 -11 -104 -23 -221 -27 -259 -4 -38 -12 -71 -19 -73 -12 -4
-12 1 7 157 10 85 42 442 60 680 16 210 21 240 37 240 12 0 14 -8 10 -32z
m323 -102 c0 -7 91 -358 97 -373 4 -11 -2 -14 -27 -11 l-33 3 -49 184 c-40
148 -47 185 -36 192 13 9 48 12 48 5z m404 -94 c-9 -51 -57 -237 -67 -259 -13
-29 -74 -34 -62 -5 31 73 45 118 60 187 19 92 20 95 46 95 13 0 18 4 13 12 -4
6 -3 8 4 4 6 -3 9 -19 6 -34z m-242 -114 c24 -79 42 -167 35 -174 -19 -19 -35
12 -50 98 -9 52 -17 102 -17 111 0 34 17 16 32 -35z m298 -446 l0 -199 -42
-13 c-58 -17 -109 -44 -132 -69 -18 -19 -29 -21 -163 -21 l-143 0 0 250 0 250
240 0 240 0 0 -198z m-5705 72 c321 -24 360 -36 447 -133 100 -110 146 -246
183 -540 37 -291 74 -517 97 -590 49 -161 145 -309 228 -351 50 -25 162 -43
225 -35 46 6 143 23 430 74 61 11 135 22 165 26 l54 6 -19 -21 c-27 -30 -55
-43 -165 -78 -177 -56 -277 -79 -571 -127 -228 -37 -431 -33 -773 16 -231 33
-358 90 -479 212 -138 140 -206 318 -261 682 -58 390 -76 530 -82 638 -8 138
4 174 75 219 52 33 50 33 446 2z m1365 -79 l23 -25 -35 0 c-32 0 -35 2 -30 25
2 14 8 25 11 25 4 0 18 -11 31 -25z m141 -187 c67 -76 71 -82 50 -89 -25 -10
-122 -26 -205 -34 l-59 -5 8 92 c4 51 8 99 8 106 0 8 20 12 63 12 l63 0 72
-82z m1539 -2 c0 -15 -251 -72 -361 -82 -75 -7 -78 -4 -63 53 6 22 9 23 198
26 105 1 199 3 209 5 9 1 17 0 17 -2z m3065 -21 c20 -19 25 -34 25 -75 0 -57
13 -64 38 -19 37 66 27 63 147 45 99 -14 150 -34 133 -51 -3 -4 -30 -13 -59
-22 -109 -31 -709 -12 -775 25 -21 12 34 25 195 48 57 8 107 16 110 19 4 2 13
-11 19 -29 13 -35 48 -73 58 -63 3 3 1 14 -5 25 -7 13 -7 31 -1 52 20 71 71
90 115 45z m-2515 -45 c118 -6 251 -15 295 -21 280 -35 506 -60 613 -65 67 -4
120 -9 118 -11 -2 -2 -103 -26 -225 -53 -263 -59 -340 -83 -376 -116 -27 -25
-27 -25 -3 -20 12 3 61 13 108 21 154 30 414 95 490 124 89 34 160 48 160 32
0 -6 -6 -11 -14 -11 -8 0 -61 -16 -118 -35 -135 -47 -435 -122 -573 -145 -90
-15 -127 -16 -205 -9 -208 21 -1016 117 -1040 124 -8 2 -78 9 -155 15 -139 11
-185 22 -185 46 0 15 24 21 146 34 180 20 375 50 412 65 89 35 213 41 552 25z
m1562 -47 c5 -2 8 -15 8 -29 0 -19 5 -24 28 -25 15 -1 95 -4 177 -8 l150 -6 3
-55 c2 -31 10 -62 19 -72 58 -65 562 -88 838 -39 153 27 152 27 160 58 l6 26
172 -9 c95 -5 212 -8 260 -7 53 1 85 -2 82 -7 -8 -13 -93 -36 -185 -50 -41 -6
-129 -23 -195 -36 -66 -13 -178 -33 -250 -45 -71 -11 -184 -31 -250 -44 -115
-23 -199 -37 -475 -85 -69 -11 -188 -34 -265 -50 -77 -16 -205 -41 -285 -55
-80 -14 -174 -33 -210 -41 -58 -13 -76 -13 -165 0 -55 8 -156 22 -225 31 -69
9 -177 25 -240 35 -63 11 -196 29 -295 40 -99 11 -218 27 -265 35 -47 8 -146
22 -220 30 -74 9 -216 29 -315 45 -231 38 -292 47 -390 60 -132 16 -413 48
-530 60 -131 14 -295 37 -302 43 -13 14 36 36 114 51 48 10 123 26 167 37 123
31 167 38 159 25 -9 -13 -4 -47 8 -62 13 -16 99 -31 254 -44 72 -7 189 -23
260 -36 72 -14 189 -29 260 -35 189 -15 401 -36 550 -55 224 -28 302 -16 809
125 142 39 262 74 267 76 7 5 11 21 24 99 l6 39 137 -8 c75 -4 140 -9 144 -12z
m-3460 -95 c26 -28 46 -53 44 -55 -2 -2 -45 1 -97 6 -52 6 -141 15 -199 22
-58 6 -112 15 -120 19 -25 14 33 31 160 45 172 19 158 21 212 -37z m4783 -4
c3 -20 3 -40 -2 -45 -17 -16 -165 -40 -326 -51 -244 -17 -531 11 -558 54 -14
22 -10 68 5 68 8 0 50 -7 93 -15 124 -24 326 -28 540 -12 105 8 200 20 210 26
27 16 30 14 38 -25z m-4885 -99 c215 -24 265 -31 390 -54 30 -6 120 -20 200
-31 80 -11 174 -24 210 -29 36 -6 169 -22 295 -36 127 -14 253 -30 280 -35 74
-15 561 -85 870 -126 149 -19 320 -44 380 -54 61 -11 169 -27 240 -35 237 -28
393 -56 400 -73 3 -8 3 -42 -1 -74 -8 -70 3 -68 -204 -34 -80 14 -192 32 -250
41 -58 8 -118 17 -135 20 -16 2 -156 23 -310 45 -154 22 -338 49 -410 60 -71
11 -224 33 -340 50 -115 17 -262 39 -325 50 -63 10 -144 21 -180 25 -143 14
-735 97 -890 126 -58 10 -183 30 -277 44 -95 14 -190 31 -210 38 -37 12 -38
13 -41 66 l-3 54 43 -7 c24 -4 144 -18 268 -31z m5768 -47 l3 -47 -40 -11
c-23 -6 -139 -30 -258 -55 -120 -24 -254 -53 -298 -64 -44 -11 -150 -34 -235
-50 -85 -17 -355 -71 -600 -121 -245 -50 -546 -111 -670 -135 -124 -24 -253
-50 -287 -58 l-63 -14 0 73 0 73 38 10 c40 11 172 37 512 100 413 77 486 91
655 120 291 51 660 119 915 171 135 27 256 51 270 53 49 9 55 4 58 -45z m-268
-853 l0 -675 -96 0 c-84 0 -95 2 -90 16 3 9 6 304 6 657 l0 642 78 16 c42 9
83 17 90 17 9 2 12 -139 12 -673z m-5335 451 c236 -35 358 -62 423 -94 71 -34
171 -141 200 -213 26 -65 159 -526 288 -999 25 -91 60 -219 79 -285 18 -66 30
-123 27 -127 -19 -19 -378 -98 -448 -98 -26 0 -16 -27 -154 425 -34 110 -97
310 -140 445 -43 135 -81 254 -83 265 -3 11 -8 30 -12 43 -6 22 -5 22 85 22
81 0 91 2 88 17 -6 32 -48 44 -129 40 -94 -6 -103 -2 -88 43 11 30 10 35 -11
52 -14 12 -39 18 -69 18 -76 0 -270 -27 -382 -53 -218 -51 -354 -62 -423 -33
-46 19 -110 78 -139 129 -30 52 -44 92 -28 83 38 -24 265 78 347 156 60 56 74
91 74 179 l0 55 158 -22 c86 -12 238 -34 337 -48z m3019 -217 c16 -5 40 -9 53
-9 l23 0 -2 -1412 -3 -1413 -78 -3 c-44 -2 -84 1 -90 7 -11 8 -15 1267 -9
2538 l2 312 38 -5 c20 -3 50 -10 66 -15z m-4930 -579 c3 -85 7 -245 7 -355 l1
-200 -46 -179 c-25 -99 -49 -183 -53 -187 -13 -13 -20 390 -15 950 l2 223 49
-49 48 -48 7 -155z m175 9 c-10 -26 -34 -110 -53 -187 -54 -214 -55 -214 -55
44 l-1 232 63 -21 64 -21 -18 -47z m1625 49 c4 -24 20 -104 37 -178 17 -74 39
-184 50 -245 11 -60 28 -141 38 -180 11 -38 22 -90 26 -115 l6 -45 -86 -34
c-47 -18 -88 -32 -90 -30 -2 2 -14 47 -28 99 -13 52 -45 172 -70 265 -25 94
-60 226 -77 295 -17 69 -33 132 -36 141 -4 13 6 18 43 23 27 4 71 15 98 26 75
28 81 26 89 -22z m-1461 -48 c5 -4 4 -17 -1 -27 -6 -11 -31 -93 -56 -184 -25
-90 -59 -209 -77 -264 -17 -55 -57 -190 -89 -300 -32 -110 -79 -265 -103 -345
-25 -80 -61 -207 -81 -282 -39 -153 -68 -228 -88 -227 -7 0 -20 3 -29 7 -16 6
-15 12 2 67 11 33 31 107 45 165 13 58 45 175 69 260 24 85 71 256 105 380 34
124 76 277 95 340 18 63 43 149 55 190 12 41 33 113 47 158 l26 84 36 -7 c20
-4 40 -10 44 -15z m1177 -47 c12 -38 48 -174 81 -303 33 -129 79 -302 101
-385 22 -82 51 -190 63 -240 27 -105 85 -311 125 -440 38 -123 53 -192 46
-210 -7 -19 -40 -19 -55 -1 -12 14 -66 182 -101 311 -29 110 -161 563 -227
779 -47 153 -142 506 -143 528 0 7 52 25 77 27 7 1 22 -29 33 -66z m-495 -195
c4 -106 7 -474 8 -818 l2 -624 -28 -10 c-17 -6 -30 -6 -36 0 -5 5 -12 218 -16
474 -3 256 -10 578 -15 715 -6 138 -10 294 -10 347 0 105 0 104 61 107 l27 1
7 -192z m6319 -178 c4 -5 9 -79 10 -167 1 -163 -4 -190 -43 -220 -19 -15 -218
-17 -240 -4 -12 8 -16 50 -19 204 l-5 195 24 5 c35 7 263 -4 273 -13z m-1395
-6 c9 -8 14 -301 6 -351 l-6 -43 -159 0 c-191 0 -195 1 -174 43 11 20 17 60
18 121 1 113 -8 157 -40 196 -43 50 -31 54 169 47 99 -4 183 -9 186 -13z m219
-191 l-3 -197 -73 1 c-41 1 -75 3 -77 5 -1 1 -6 90 -10 196 l-7 192 86 0 86 0
-2 -197z m627 62 c4 -74 4 -164 0 -200 l-7 -65 -276 2 -277 3 -3 197 -2 198
279 0 279 -1 7 -134z m202 28 c6 -60 8 -147 6 -195 l-5 -87 -65 -7 c-35 -3
-67 -3 -71 1 -4 3 -8 94 -10 201 l-3 194 69 0 68 0 11 -107z m-5007 -348 c21
-13 79 -38 128 -55 50 -18 93 -39 97 -47 3 -9 -1 -26 -9 -38 -15 -22 -87 -44
-251 -76 -33 -6 -64 -13 -71 -16 -6 -2 -23 42 -41 114 -17 65 -34 126 -38 136
-5 12 -2 17 11 17 11 0 37 9 59 19 l40 19 19 -25 c10 -13 36 -35 56 -48z
m-380 -101 c0 -19 29 -124 47 -170 4 -10 -3 -14 -25 -14 -27 0 -30 3 -36 46
-10 75 -7 192 4 174 5 -8 10 -25 10 -36z m1292 -88 c23 -24 81 -56 189 -105
86 -39 161 -71 167 -71 6 0 30 -7 52 -16 51 -21 55 -51 8 -59 -38 -6 -422 -31
-620 -41 l-137 -6 -20 69 c-20 68 -45 193 -39 197 2 2 61 11 131 20 70 10 147
23 170 31 61 19 64 18 99 -19z m3012 -72 c3 -26 6 -118 6 -205 l0 -159 -180 0
c-99 0 -180 4 -180 9 0 24 39 35 158 44 118 8 152 17 152 38 0 5 -51 10 -112
11 -113 3 -113 3 -122 30 -5 15 -8 30 -5 32 2 2 58 8 123 13 80 5 121 12 124
21 3 9 -24 12 -112 12 l-116 0 0 69 c0 38 -3 83 -6 100 l-6 31 134 0 135 0 7
-46z m134 -166 l2 -208 -35 0 -35 0 0 83 c0 45 -3 140 -7 210 l-6 128 39 -3
39 -3 3 -207z m743 202 l259 0 0 -159 c0 -201 -6 -251 -31 -251 -11 0 -19 4
-19 9 0 5 -37 9 -82 10 -54 1 -90 6 -105 16 -21 14 -23 14 -23 -5 0 -16 -7
-20 -34 -20 -22 0 -36 6 -40 16 -4 11 -13 13 -28 8 -13 -3 -24 -11 -26 -15 -2
-5 -96 -9 -208 -9 l-204 0 0 200 0 199 113 4 c61 2 125 2 141 0 16 -2 145 -3
287 -3z m718 -16 c6 -5 -8 -48 -23 -66 -11 -15 -36 -18 -156 -22 -79 -3 -148
-10 -153 -15 -6 -6 -13 -74 -15 -151 -4 -137 -5 -140 -27 -140 -33 0 -37 28
-29 229 l7 177 196 -4 c108 -2 198 -6 200 -8z m-35 -120 c25 -10 21 -60 -6
-67 l-21 -6 21 -18 c12 -10 22 -33 24 -53 l3 -35 -159 -3 -158 -3 6 43 c4 24
9 64 12 90 l6 47 126 4 c70 1 128 4 129 5 1 1 8 -1 17 -4z m51 -247 c17 -10
11 -13 -45 -18 -36 -4 -116 -7 -177 -8 l-113 -1 0 26 0 27 157 -8 c87 -4 167
-12 178 -18z"/>
<path d="M2940 8340 c-8 -5 -58 -28 -110 -51 -220 -96 -257 -114 -305 -147
-71 -50 -148 -144 -197 -240 -37 -73 -42 -90 -42 -155 -1 -77 9 -131 23 -123
12 8 33 150 33 221 0 49 5 65 24 88 13 16 24 23 24 15 1 -8 6 -6 15 6 8 10 12
23 9 28 -3 5 -1 7 4 6 14 -4 112 104 105 115 -3 6 -1 7 5 3 7 -4 20 -2 29 3
17 10 17 10 -1 11 -50 0 64 72 159 100 22 6 50 16 62 22 11 6 27 8 35 6 17 -7
70 20 63 31 -3 5 15 21 40 35 25 15 45 29 45 31 0 7 -3 6 -20 -5z m-617 -525
c-3 -9 -8 -14 -10 -11 -3 3 -2 9 2 15 9 16 15 13 8 -4z"/>
<path d="M2272 7600 c0 -14 2 -19 5 -12 2 6 2 18 0 25 -3 6 -5 1 -5 -13z"/>
<path d="M4938 4919 c-16 -6 -28 -17 -28 -24 0 -17 32 -25 105 -25 33 0 107
-7 165 -15 58 -8 135 -15 173 -15 l67 0 -16 25 c-9 14 -26 25 -37 25 -37 0
-11 10 49 19 54 9 50 10 -51 9 -60 -1 -175 1 -255 5 -96 5 -154 3 -172 -4z"/>
<path d="M6909 4800 c-123 -21 -280 -56 -312 -71 -28 -13 -52 -48 -40 -60 10
-10 294 -65 420 -81 79 -10 99 -10 145 4 29 9 116 28 193 43 182 34 205 42
205 66 0 23 -19 32 -127 59 -148 37 -277 60 -328 59 -27 0 -98 -9 -156 -19z
m256 -56 c44 -9 99 -20 123 -24 78 -13 70 -19 -59 -40 -36 -5 -88 -17 -115
-25 -45 -13 -62 -12 -219 11 -287 43 -273 39 -180 48 44 4 109 14 145 21 131
28 199 30 305 9z"/>
<path d="M773 8835 c-39 -17 -53 -42 -53 -95 0 -73 41 -120 104 -120 20 0 65
35 55 43 -2 2 -30 9 -62 16 -42 9 -62 19 -74 37 -8 14 -14 26 -12 27 2 2 17
13 33 25 32 24 94 30 114 10 9 -9 12 -7 12 10 0 29 -34 62 -62 62 -13 -1 -37
-7 -55 -15z"/>
<path d="M1034 8836 c-53 -23 -51 -36 5 -36 66 0 99 -16 110 -54 l9 -31 1 35
c1 37 -20 71 -56 89 -27 14 -31 13 -69 -3z"/>
<path d="M3808 8754 c-61 -33 -58 23 -58 -1096 0 -670 4 -1036 10 -1060 6 -20
23 -46 37 -58 l26 -20 1501 4 1501 5 28 32 c28 31 29 33 26 138 -1 58 3 306 9
551 9 370 11 947 4 1364 -2 86 -3 89 -36 122 l-34 34 -1494 0 c-1301 -1 -1497
-3 -1520 -16z m2645 -51 c268 -5 342 -9 352 -20 18 -18 30 -82 18 -94 -5 -5
-35 -6 -68 -1 -59 7 -60 8 -61 40 -1 41 -5 45 -38 36 -31 -7 -33 -17 -6 -44
l20 -20 -50 0 c-27 0 -50 5 -50 10 0 6 -5 10 -11 10 -5 0 -8 -4 -5 -9 6 -10
-93 -25 -103 -16 -3 4 -6 17 -6 28 0 17 -7 23 -28 25 -38 5 -57 -14 -57 -53
l0 -32 122 -6 c66 -4 163 -7 214 -7 l92 0 7 -152 c3 -84 5 -524 3 -978 l-3
-825 -1478 -3 -1477 -2 -10 26 c-9 21 -16 1920 -7 1926 1 0 425 5 942 9 517 4
961 10 988 14 26 4 47 3 47 -2 0 -5 15 -8 33 -6 17 2 65 5 104 6 40 2 75 6 78
9 15 15 -305 20 -907 16 -362 -3 -802 -3 -978 0 l-320 5 0 28 c0 52 16 77 52
82 57 7 2235 7 2591 0z m-26 -99 c-3 -3 -12 -4 -19 -1 -8 3 -5 6 6 6 11 1 17
-2 13 -5z"/>
<path d="M5263 8416 c-100 -32 -198 -122 -229 -208 -19 -56 -20 -164 0 -231
18 -62 90 -164 133 -188 46 -27 133 -49 192 -49 110 1 180 43 251 148 55 81
70 123 70 199 0 90 -33 159 -114 238 -48 47 -85 75 -111 82 -67 20 -147 24
-192 9z m183 -84 c53 -28 109 -87 134 -145 41 -92 35 -197 -10 -197 -17 0 -19
3 -10 19 5 11 10 23 10 28 -1 4 -8 -4 -16 -19 -18 -35 -57 -37 -116 -7 -51 26
-74 20 -132 -33 -70 -63 -59 -95 36 -105 43 -4 63 -1 96 16 40 20 102 29 102
14 0 -10 -65 -55 -103 -70 -48 -21 -135 -16 -192 11 -98 45 -155 137 -155 251
0 113 51 192 155 242 60 29 139 27 201 -5z"/>
<path d="M5005 7700 c-169 -54 -278 -153 -319 -289 -23 -77 -21 -83 15 -79 29
3 33 8 51 67 34 112 154 206 316 246 60 16 64 15 95 -3 43 -26 156 -46 224
-39 30 3 80 18 110 33 68 33 97 30 218 -22 118 -50 201 -128 235 -222 22 -60
24 -62 58 -62 34 0 35 0 29 37 -16 99 -115 228 -214 280 -82 44 -185 73 -255
73 -49 0 -65 -4 -89 -24 -27 -23 -104 -46 -153 -46 -33 0 -85 19 -126 47 -43
29 -110 30 -195 3z"/>
<path d="M5299 7225 c-55 -18 -121 -84 -151 -152 -59 -133 56 -305 202 -305
84 0 172 61 211 146 78 172 -86 367 -262 311z m118 -175 c20 0 73 -51 73 -70
0 -29 -25 -44 -44 -25 -9 9 -16 20 -16 25 0 18 -33 40 -60 40 -44 0 -60 -10
-75 -46 -16 -38 -22 -40 -51 -20 -15 12 -17 19 -8 32 26 42 103 78 149 68 11
-2 25 -4 32 -4z"/>
<path d="M4721 7215 c-47 -15 -91 -51 -123 -103 -31 -51 -39 -100 -27 -162 9
-46 20 -63 63 -106 108 -109 245 -91 326 42 30 50 35 67 34 119 0 67 -17 106
-65 154 -61 61 -132 81 -208 56z m144 -213 c20 -5 31 -16 33 -30 5 -34 -22
-36 -73 -6 -45 26 -48 26 -75 11 -15 -10 -37 -17 -49 -17 -19 0 -41 26 -41 48
0 11 163 6 205 -6z"/>
<path d="M5872 7215 c-63 -27 -94 -58 -123 -119 -33 -69 -36 -116 -13 -172 33
-81 88 -129 167 -148 44 -11 105 12 154 57 56 51 82 106 83 170 0 89 -45 158
-132 203 -54 27 -88 30 -136 9z m57 -130 c42 -21 111 -108 111 -139 0 -41 -23
-31 -59 24 -18 28 -50 60 -72 73 -47 27 -51 46 -11 56 2 1 16 -6 31 -14z m-65
-96 c21 -24 24 -34 15 -45 -15 -19 -45 -18 -53 2 -9 24 -7 74 3 74 5 0 21 -14
35 -31z"/>
<path d="M1002 8671 c2 -9 16 -22 31 -29 32 -15 75 -4 99 26 8 10 8 13 1 9 -6
-4 -39 -3 -72 1 -54 8 -61 7 -59 -7z"/>
<path d="M8539 8423 c-13 -16 -12 -17 4 -4 9 7 17 15 17 17 0 8 -8 3 -21 -13z"/>
<path d="M8489 8383 c-13 -16 -12 -17 4 -4 9 7 17 15 17 17 0 8 -8 3 -21 -13z"/>
<path d="M8449 8343 c-13 -16 -12 -17 4 -4 9 7 17 15 17 17 0 8 -8 3 -21 -13z"/>
<path d="M8850 8340 c-14 -11 -20 -20 -14 -20 6 0 19 9 29 20 23 25 17 25 -15
0z"/>
<path d="M8364 8272 c-28 -26 -59 -58 -69 -72 -11 -14 3 -4 30 21 28 25 63 58
80 72 16 15 25 27 20 27 -6 0 -33 -22 -61 -48z"/>
<path d="M8766 7397 c0 -496 4 -914 8 -929 14 -49 23 -30 29 60 9 120 10 1650
2 1684 -4 16 -12 25 -18 21 -6 -3 -7 -1 -3 6 9 14 -1 61 -12 61 -4 0 -7 -406
-6 -903z"/>
<path d="M206 8214 c-3 -9 -6 -18 -6 -20 0 -2 288 -4 640 -4 633 0 640 0 640
20 0 20 -7 20 -634 20 -569 0 -634 -2 -640 -16z"/>
<path d="M8859 8173 l-24 -28 28 24 c15 14 27 26 27 28 0 8 -8 1 -31 -24z"/>
<path d="M8951 8086 c-17 -18 -49 -46 -71 -62 -22 -16 -40 -33 -40 -37 0 -9
109 74 136 104 31 34 9 30 -25 -5z"/>
<path d="M9455 8052 c-43 -37 -113 -100 -155 -141 l-75 -74 65 55 c36 30 97
81 135 113 69 58 115 102 115 111 0 7 -1 6 -85 -64z"/>
<path d="M8165 8070 c-3 -5 -1 -10 4 -10 6 0 11 5 11 10 0 6 -2 10 -4 10 -3 0
-8 -4 -11 -10z"/>
<path d="M9630 8043 c-57 -44 -178 -162 -191 -186 -21 -38 29 2 135 108 125
124 138 142 56 78z"/>
<path d="M1135 8060 l-140 -6 135 -2 c74 -1 182 -5 239 -9 86 -5 103 -4 99 8
-5 16 -106 19 -333 9z"/>
<path d="M216 7987 c3 -10 40 -12 162 -9 277 6 314 19 60 21 -182 1 -226 -2
-222 -12z"/>
<path d="M8689 7983 c-13 -16 -12 -17 4 -4 9 7 17 15 17 17 0 8 -8 3 -21 -13z"/>
<path d="M9755 7990 c-3 -5 -1 -10 4 -10 6 0 11 5 11 10 0 6 -2 10 -4 10 -3 0
-8 -4 -11 -10z"/>
<path d="M1315 7940 c-4 -6 22 -10 70 -10 48 0 74 4 70 10 -3 6 -35 10 -70 10
-35 0 -67 -4 -70 -10z"/>
<path d="M9672 7905 c-22 -19 -41 -32 -44 -29 -3 3 -16 -9 -29 -26 -13 -17
-37 -47 -54 -68 -16 -20 16 5 73 57 56 52 102 96 102 98 0 9 -13 0 -48 -32z"/>
<path d="M9760 7828 c-34 -35 -71 -76 -82 -93 -12 -16 19 9 68 57 48 48 86 90
82 93 -3 3 -33 -23 -68 -57z"/>
<path d="M7970 7869 c0 -5 5 -7 10 -4 6 3 10 8 10 11 0 2 -4 4 -10 4 -5 0 -10
-5 -10 -11z"/>
<path d="M233 7840 c-44 -18 -26 -33 30 -26 28 3 311 7 627 7 l575 2 -415 13
c-499 14 -787 16 -817 4z"/>
<path d="M213 7695 c-3 -9 -4 -17 -2 -18 2 -2 287 -1 632 1 467 3 627 7 624
15 -3 9 -168 13 -626 15 -554 2 -622 0 -628 -13z"/>
<path d="M9274 7689 c-19 -22 -19 -22 4 -10 12 6 22 16 22 21 0 15 -5 12 -26
-11z"/>
<path d="M280 7567 c30 -14 1180 -23 1180 -9 0 8 -693 23 -1039 21 -135 0
-161 -2 -141 -12z"/>
<path d="M210 7443 c0 -17 35 -18 632 -15 348 2 635 5 637 7 22 22 -54 25
-640 25 -592 0 -629 -1 -629 -17z"/>
<path d="M628 7332 l-418 -2 0 -21 0 -22 513 8 c287 4 513 11 515 16 2 5 8 9
13 9 6 0 8 -4 5 -9 -6 -9 87 -21 165 -21 35 0 49 4 49 14 0 11 -29 15 -137 20
-241 11 -280 11 -705 8z"/>
<path d="M210 7191 c0 -14 59 -16 627 -13 345 2 629 5 632 8 2 2 1 7 -3 12 -4
4 -289 7 -632 8 -564 1 -624 -1 -624 -15z"/>
<path d="M9445 7182 c-47 -2 -82 -8 -87 -15 -11 -18 1 -310 14 -318 6 -4 13
-30 16 -58 2 -28 9 -51 14 -51 5 0 8 78 6 184 -2 101 1 188 5 192 5 5 66 9
135 9 l127 0 5 -605 c3 -333 6 -487 8 -342 2 223 4 262 17 262 12 0 15 -22 18
-117 1 -65 4 104 5 375 l2 493 -102 -3 c-57 -2 -139 -4 -183 -6z m266 -169
c12 -293 7 -493 -12 -493 -5 0 -9 108 -9 255 0 163 4 255 10 255 6 0 10 -8 11
-17z"/>
<path d="M8912 7008 c1 -90 2 -91 7 -28 3 36 6 -207 6 -540 l0 -605 55 -1 c36
-1 41 0 15 3 l-40 4 1 59 c0 33 -3 60 -8 60 -12 0 -10 92 3 110 8 12 9 10 4
-7 -4 -13 -2 -23 4 -23 6 0 11 -38 13 -92 3 -93 3 -93 28 -89 137 20 132 18
54 20 l-72 1 -8 283 c-7 239 -7 753 -1 852 l2 30 105 0 105 0 3 -38 c3 -31 6
-36 17 -27 37 31 42 -81 19 -517 -5 -109 -4 -123 10 -123 14 0 16 38 16 380
l0 380 -170 0 -170 0 2 -92z m182 64 c3 -5 -11 -9 -32 -10 -29 0 -33 1 -17 8
27 11 43 12 49 2z m-138 -277 c4 -29 1 -65 -9 -102 l-15 -58 -1 103 c-1 105
12 137 25 57z"/>
<path d="M418 7073 c-156 -3 -208 -6 -208 -16 0 -15 1255 -22 1265 -7 4 6 0
12 -7 14 -18 6 -799 12 -1050 9z"/>
<path d="M9524 7056 c-3 -8 -3 -20 1 -25 3 -7 0 -8 -9 -5 -13 5 -14 1 -5 -25
20 -56 64 -63 90 -15 11 22 11 30 -2 52 -17 31 -66 43 -75 18z"/>
<path d="M9045 7000 c-10 -16 6 -59 25 -65 39 -12 68 20 50 56 -11 20 -64 27
-75 9z"/>
<path d="M210 6947 c0 -9 89 -13 348 -15 377 -4 914 6 907 17 -2 4 -285 8
-629 8 -476 1 -626 -1 -626 -10z"/>
<path d="M210 6823 c0 -18 20 -19 630 -20 566 -2 655 1 623 20 -5 3 -288 8
-630 12 -606 7 -623 7 -623 -12z"/>
<path d="M2070 6803 c-22 -8 -50 -34 -50 -47 0 -8 3 -8 8 0 10 14 52 12 52 -3
0 -19 30 -3 39 20 7 18 8 18 24 3 9 -10 21 -14 27 -11 6 4 10 3 9 -2 -1 -4 1
-16 6 -26 4 -10 3 -28 -4 -40 -10 -19 -10 -19 -6 -2 3 12 -5 31 -20 49 -27 31
-34 24 -10 -8 18 -24 19 -79 3 -109 -10 -20 -10 -21 5 -8 15 12 17 11 17 -3 0
-21 17 -21 24 2 7 23 7 122 0 145 -10 33 -80 56 -124 40z"/>
<path d="M9525 6748 c-27 -15 -34 -28 -28 -47 18 -49 73 -68 93 -32 16 31 12
59 -12 75 -26 19 -27 19 -53 4z"/>
<path d="M9041 6726 c-26 -31 30 -76 72 -60 23 8 27 41 8 58 -22 20 -65 21
-80 2z"/>
<path d="M285 6690 c82 -11 1150 -24 1165 -15 9 5 9 9 1 14 -6 4 -284 7 -618
8 -335 0 -581 -3 -548 -7z"/>
<path d="M9352 6550 c-1 -52 1 -167 5 -255 l7 -160 12 90 c7 50 12 137 12 195
-1 73 -3 91 -7 60 -6 -40 -8 -33 -17 60 l-11 105 -1 -95z"/>
<path d="M2020 6611 c0 -10 29 -36 34 -30 1 2 -6 12 -16 22 -10 9 -18 13 -18
8z"/>
<path d="M210 6572 c0 -10 299 -21 620 -22 248 -1 640 10 640 19 0 3 -284 7
-630 9 -360 1 -630 -1 -630 -6z"/>
<path d="M9397 6508 c6 -73 11 -83 12 -23 0 28 -3 56 -8 63 -5 8 -6 -8 -4 -40z"/>
<path d="M9193 6500 c0 -25 2 -35 4 -22 2 12 2 32 0 45 -2 12 -4 2 -4 -23z"/>
<path d="M1847 6464 c-10 -11 -9 -42 3 -49 20 -12 51 6 48 28 -3 22 -36 35
-51 21z"/>
<path d="M1023 6420 c-108 -38 -206 -130 -242 -224 -42 -113 -20 -260 50 -332
29 -30 30 -35 20 -66 -18 -55 -81 -375 -82 -415 0 -21 -4 -47 -8 -58 -6 -16
-12 -9 -30 40 -12 33 -29 78 -37 101 -15 39 -14 43 5 80 26 49 26 94 1 177
-36 118 -155 216 -268 223 -26 1 -55 5 -65 9 -30 12 -89 -17 -112 -55 -17 -29
-20 -52 -20 -140 1 -93 4 -112 28 -165 52 -111 118 -157 227 -159 36 -1 82 3
103 7 l38 8 23 -53 c13 -29 34 -91 47 -138 22 -78 24 -102 23 -285 -1 -266
-13 -477 -26 -473 -6 2 -29 46 -51 96 -38 91 -39 93 -21 114 16 17 19 36 19
122 -1 96 -2 104 -37 171 -60 117 -163 194 -285 214 -76 12 -108 5 -137 -30
-45 -53 -48 -221 -6 -332 25 -66 94 -147 159 -185 40 -24 56 -27 133 -27 100
0 94 5 148 -130 26 -65 69 -224 70 -257 0 -5 -81 -8 -179 -8 -99 0 -187 -3
-196 -6 -26 -10 -82 -134 -110 -242 -44 -177 -30 -343 42 -491 28 -58 56 -96
122 -161 126 -125 208 -160 380 -160 175 0 268 35 386 143 73 66 142 170 181
272 51 134 42 351 -22 525 -15 38 -37 81 -50 95 l-23 25 -216 0 c-170 0 -217
3 -221 13 -10 28 73 257 116 317 21 29 22 30 52 14 24 -12 50 -15 108 -12 178
10 292 141 294 338 2 124 -35 153 -194 153 -117 1 -207 -46 -266 -139 -60 -93
-80 -237 -39 -278 11 -11 9 -22 -12 -67 -15 -30 -37 -85 -50 -124 l-24 -70 6
260 c3 143 9 287 14 321 12 82 62 198 122 283 48 68 50 71 72 57 94 -62 276
-24 361 76 62 72 89 140 93 232 5 99 -14 139 -74 155 -146 41 -348 -34 -425
-157 -20 -33 -23 -50 -24 -147 l-1 -110 -55 -95 c-30 -52 -60 -104 -66 -115
-22 -40 -13 46 27 245 55 273 89 413 104 422 7 4 27 8 44 8 18 0 58 12 89 27
141 67 194 183 174 379 -11 109 -27 152 -65 182 -33 26 -72 27 -142 2z m127
-85 c22 -44 25 -63 25 -160 0 -86 -4 -118 -18 -146 -37 -74 -124 -139 -186
-139 l-30 0 50 113 c98 217 121 279 114 304 -11 44 -38 22 -82 -67 -23 -47
-61 -132 -84 -190 -23 -58 -47 -116 -54 -129 l-12 -23 -21 30 c-45 62 -51 174
-15 264 19 48 122 144 188 175 73 34 95 28 125 -32z m-643 -469 c26 -13 60
-36 76 -51 44 -42 80 -123 81 -182 1 -72 -15 -85 -51 -42 -47 57 -205 224
-220 232 -15 9 -43 -8 -43 -27 0 -6 56 -72 125 -146 69 -74 125 -137 125 -140
0 -10 -88 -30 -128 -30 -131 0 -246 286 -159 396 19 25 24 26 83 21 37 -4 83
-16 111 -31z m871 -153 c19 -26 8 -123 -22 -189 -39 -86 -97 -141 -173 -164
-78 -24 -102 -25 -150 -5 l-37 16 26 13 c14 8 65 47 114 88 49 41 110 91 137
112 55 45 63 76 18 76 -33 0 -149 -82 -252 -177 -56 -53 -58 -53 -69 -32 -30
56 21 162 106 222 86 60 268 85 302 40z m-981 -579 c84 -44 113 -71 151 -143
42 -79 59 -165 40 -210 l-14 -34 -65 89 c-36 49 -90 123 -121 164 -69 94 -83
107 -103 90 -25 -21 -17 -42 42 -115 59 -73 183 -253 183 -266 0 -12 -41 -15
-90 -7 -67 12 -127 67 -175 163 -38 75 -40 83 -40 171 0 76 3 95 19 113 30 33
91 28 173 -15z m887 -133 c25 -27 30 -83 16 -154 -23 -106 -76 -169 -173 -201
-57 -19 -137 -21 -161 -3 -16 12 -16 14 4 40 12 15 68 62 124 105 111 84 186
150 186 163 0 55 -282 -139 -347 -238 l-16 -25 -19 38 c-10 21 -18 44 -18 51
0 28 62 135 99 172 50 50 107 69 207 70 67 1 84 -2 98 -18z m-890 -817 c9 -4
16 -18 16 -34 0 -16 5 -32 10 -35 6 -4 10 10 10 34 0 39 2 41 30 41 19 0 33
-7 40 -19 11 -21 12 -440 1 -695 l-6 -149 -30 25 c-27 24 -31 35 -42 120 l-12
93 4 -85 3 -85 -38 43 -38 42 -7 123 c-4 67 -5 222 -3 345 2 185 6 224 18 232
18 11 23 12 44 4z m197 -4 c5 0 9 -10 9 -22 l1 -23 18 23 c13 15 30 22 54 22
l34 0 5 -197 c2 -109 4 -317 4 -463 l-1 -265 -35 3 c-19 2 -37 6 -40 9 -3 2
-7 134 -10 293 -3 159 -9 292 -13 296 -4 4 -6 -123 -5 -284 3 -317 5 -307 -52
-277 -36 19 -33 -26 -30 485 2 400 4 418 38 405 8 -3 18 -5 23 -5z m214 -55
c3 -35 5 -125 4 -199 -2 -75 0 -139 4 -142 4 -4 7 69 7 162 0 209 5 244 34
244 47 0 46 8 53 -451 6 -475 6 -479 -47 -479 -17 0 -31 6 -31 13 -1 6 -5 66
-9 132 l-6 120 -2 -115 c-3 -151 -6 -162 -46 -158 l-31 3 -5 440 c-3 242 -3
452 -1 468 3 23 8 27 36 27 l33 0 7 -65z m197 -25 c3 -47 7 -197 9 -335 l4
-250 5 335 5 335 43 3 43 3 -3 -401 -3 -402 -34 -30 -35 -31 -10 24 -10 24 -4
-27 c-3 -28 -44 -68 -67 -68 -7 0 -15 10 -17 23 -8 37 -10 865 -3 877 4 6 21
10 38 8 l32 -3 7 -85z m195 73 c3 -10 19 -46 35 -80 72 -156 76 -403 8 -515
l-20 -33 -1 65 -2 65 -7 -60 c-5 -33 -6 -63 -4 -67 6 -10 -40 -101 -59 -116
-12 -10 -15 4 -20 95 -9 134 -9 576 -1 626 6 33 10 37 36 37 18 0 31 -6 35
-17z m-882 -353 c0 -314 -2 -322 -47 -191 -40 116 -26 347 29 454 7 15 15 27
16 27 2 0 3 -131 2 -290z"/>
<path d="M418 4026 c-5 -27 -7 -94 -7 -150 l2 -101 9 105 c4 58 7 125 6 150
l-3 45 -7 -49z"/>
<path d="M1206 3916 c2 -120 5 -221 8 -224 9 -8 6 334 -3 393 -4 28 -6 -48 -5
-169z"/>
<path d="M3983 6032 c-3 -8 0 -18 8 -23 21 -14 63 -6 67 12 4 22 -67 32 -75
11z"/>
<path d="M9040 6026 c0 -29 26 -41 69 -31 29 6 46 29 35 46 -3 5 -27 9 -55 9
-45 0 -49 -2 -49 -24z"/>
<path d="M9512 6039 c-33 -13 -25 -40 18 -61 29 -15 37 -16 55 -4 60 40 -1 94
-73 65z"/>
<path d="M3770 6020 c0 -21 16 -25 58 -14 39 11 27 34 -18 34 -33 0 -40 -3
-40 -20z"/>
<path d="M4192 6028 c3 -7 21 -14 41 -16 28 -2 37 1 37 12 0 12 -11 16 -41 16
-28 0 -39 -4 -37 -12z"/>
<path d="M4410 6026 c0 -21 15 -28 45 -20 39 10 32 34 -10 34 -24 0 -35 -5
-35 -14z"/>
<path d="M4852 6023 c2 -11 14 -19 31 -21 22 -3 27 1 27 17 0 17 -6 21 -31 21
-24 0 -30 -4 -27 -17z"/>
<path d="M9363 5970 c0 -41 2 -58 4 -37 2 20 2 54 0 75 -2 20 -4 3 -4 -38z"/>
<path d="M4666 6015 c-19 -15 -19 -15 1 -15 11 0 26 7 33 15 17 20 -7 20 -34
0z"/>
<path d="M9231 5894 c0 -11 3 -14 6 -6 3 7 2 16 -1 19 -3 4 -6 -2 -5 -13z"/>
<path d="M9400 5871 c0 -16 44 -25 48 -11 3 9 6 9 13 -1 5 -8 9 -9 9 -3 0 8
17 10 48 8 36 -3 41 -2 22 5 -34 12 -140 13 -140 2z"/>
<path d="M9817 4054 c-16 -17 -6 -55 18 -66 32 -14 57 5 53 41 -2 21 -9 27
-33 29 -17 2 -34 0 -38 -4z"/>
<path d="M8340 3900 c0 -5 4 -10 9 -10 6 0 13 5 16 10 3 6 -1 10 -9 10 -9 0
-16 -4 -16 -10z"/>
<path d="M5085 3839 c47 -11 66 -25 82 -59 9 -20 12 -21 12 -7 1 10 -12 32
-28 48 -23 23 -38 29 -68 28 l-38 -1 40 -9z"/>
<path d="M5015 3820 c-10 -11 -16 -22 -13 -25 3 -3 13 6 22 20 20 30 16 32 -9
5z"/>
<path d="M5129 3737 c-4 -41 -3 -42 18 -32 13 5 23 17 23 25 0 12 -2 12 -9 1
-11 -17 -23 1 -15 22 3 8 1 18 -4 21 -6 3 -12 -13 -13 -37z"/>
<path d="M1000 2965 c0 -23 4 -25 45 -25 43 0 95 16 95 30 0 9 -61 20 -107 20
-29 0 -33 -3 -33 -25z"/>
<path d="M1193 2983 c-62 -8 -30 -43 38 -43 46 0 61 11 52 38 -5 12 -25 13
-90 5z"/>
<path d="M460 2960 c0 -16 7 -20 34 -20 39 0 92 17 83 27 -4 3 -31 7 -62 9
-49 3 -55 1 -55 -16z"/>
<path d="M672 2968 c9 -27 108 -29 108 -2 0 10 -15 14 -56 14 -39 0 -54 -4
-52 -12z"/>
<path d="M4790 2961 c0 -10 95 -22 116 -14 13 5 13 7 2 14 -17 11 -118 11
-118 0z"/>
<path d="M4945 2953 c11 -3 29 -12 40 -19 26 -18 75 -18 75 0 0 8 -15 16 -37
20 -46 7 -108 6 -78 -1z"/>
<path d="M5110 2921 c0 -11 61 -21 125 -20 l50 0 -45 15 c-50 15 -130 19 -130
5z"/>
<path d="M5354 2891 c3 -5 15 -7 26 -4 28 7 25 13 -6 13 -14 0 -23 -4 -20 -9z"/>
<path d="M5459 2879 c31 -12 131 -19 131 -9 0 10 -53 20 -109 19 -40 0 -43 -2
-22 -10z"/>
<path d="M5841 2826 c12 -10 60 -16 54 -6 -3 5 -18 10 -32 10 -15 0 -24 -2
-22 -4z"/>
<path d="M5932 2815 c4 -4 19 -8 35 -10 15 -1 55 -5 88 -9 38 -4 53 -3 40 2
-25 12 -172 27 -163 17z"/>
<path d="M6245 2760 c17 -4 41 -8 55 -9 20 0 22 1 10 9 -8 5 -33 9 -55 9 -39
-1 -39 -2 -10 -9z"/>
<path d="M6358 2743 c7 -3 16 -2 19 1 4 3 -2 6 -13 5 -11 0 -14 -3 -6 -6z"/>
<path d="M6396 2740 c5 -4 38 -11 74 -14 48 -4 56 -3 30 3 -54 14 -113 20
-104 11z"/>
<path d="M410 2620 c0 -5 15 -10 33 -9 27 0 29 2 12 9 -28 12 -45 12 -45 0z"/>
<path d="M560 2621 c-22 -6 -23 -8 -7 -14 28 -10 87 -8 87 3 0 6 -6 10 -14 10
-8 0 -20 2 -28 4 -7 2 -24 1 -38 -3z"/>
<path d="M7010 2617 c0 -23 111 -47 167 -37 l38 7 -30 12 c-32 14 -175 28
-175 18z"/>
<path d="M5258 2573 c7 -3 16 -2 19 1 4 3 -2 6 -13 5 -11 0 -14 -3 -6 -6z"/>
<path d="M5318 2563 c12 -2 32 -2 45 0 12 2 2 4 -23 4 -25 0 -35 -2 -22 -4z"/>
<path d="M9628 2505 c4 -24 7 -25 78 -25 72 0 74 1 74 25 0 25 -1 25 -79 25
-78 0 -78 0 -73 -25z"/>
<path d="M527 2513 c-11 -10 -8 -41 4 -48 5 -4 37 -4 70 0 47 6 59 10 59 25 0
12 -10 20 -31 24 -41 8 -94 8 -102 -1z"/>
<path d="M740 2496 c0 -22 4 -23 88 -29 48 -3 91 -2 95 3 5 4 6 17 2 29 -6 19
-14 21 -96 21 -87 0 -89 -1 -89 -24z"/>
<path d="M355 2500 c-18 -7 -18 -9 -3 -15 22 -9 54 -3 51 10 -3 13 -24 16 -48
5z"/>
<path d="M6413 2353 c9 -2 23 -2 30 0 6 3 -1 5 -18 5 -16 0 -22 -2 -12 -5z"/>
<path d="M6983 2250 c15 -5 58 -11 95 -14 l67 -5 -75 14 c-85 15 -131 18 -87
5z"/>
<path d="M7150 1931 c-26 -49 -18 -51 233 -51 l235 0 6 -31 c3 -17 6 -51 6
-75 l0 -44 -151 6 c-145 7 -151 6 -147 -12 3 -18 14 -19 148 -19 l145 0 -3
-49 c-1 -27 -4 -51 -6 -54 -3 -2 -63 0 -135 5 l-130 8 -39 -50 c-21 -27 -41
-58 -45 -67 -8 -21 9 -24 20 -4 4 8 24 23 43 34 40 23 182 37 255 26 l45 -6 0
-54 0 -53 -161 -3 c-116 -2 -167 1 -185 10 -23 12 -24 11 -24 -16 0 -33 51
-141 78 -165 16 -15 30 -16 128 -5 159 17 1723 11 1744 -6 32 -27 40 -27 49
-3 9 24 12 24 155 29 159 6 180 12 170 57 -9 37 -17 43 -87 67 l-62 21 -3 99
c-1 54 -3 108 -3 119 -1 11 2 66 6 123 6 74 12 102 21 102 17 0 37 37 31 55
-4 10 -146 13 -734 14 -400 0 -768 2 -818 3 -49 1 -202 1 -340 -1 -137 -1
-291 1 -341 5 -88 6 -92 6 -104 -15z m595 -183 c-4 -79 -8 -144 -9 -145 0 0
-12 -3 -26 -5 -25 -3 -25 -3 -28 92 -2 52 0 119 3 148 6 50 8 52 37 52 l30 0
-7 -142z m127 10 c3 -73 3 -139 1 -145 -3 -7 -20 -13 -39 -13 l-34 0 0 145 0
145 34 0 33 0 5 -132z m823 116 l725 -7 0 -33 c0 -18 -7 -45 -16 -61 l-17 -28
-655 -2 c-361 -2 -665 -6 -675 -9 -10 -3 -16 -9 -12 -12 4 -4 305 -9 670 -12
490 -4 667 -8 676 -17 13 -13 16 -60 4 -71 -8 -8 -1456 -20 -1459 -12 -2 3 -1
67 2 143 3 111 7 137 18 133 7 -3 340 -8 739 -12z m52 10 c-3 -3 -12 -4 -19
-1 -8 3 -5 6 6 6 11 1 17 -2 13 -5z m662 -358 c6 -25 11 -55 11 -68 l0 -23
-607 -5 c-1036 -8 -1023 -8 -1035 13 -9 17 -11 17 -22 2 -8 -11 -23 -16 -46
-13 -32 3 -35 6 -38 37 -6 60 4 81 40 81 18 0 36 -7 43 -17 13 -17 14 -17 33
1 19 17 54 18 459 25 241 4 598 8 794 9 l357 2 11 -44z m66 -149 c62 -2 70 -4
70 -22 0 -43 -13 -44 -1143 -44 -984 -1 -1073 0 -1079 15 -8 22 9 47 38 55 20
6 1910 2 2114 -4z"/>
<path d="M3580 1644 c-97 -10 -215 -27 -257 -39 -27 -7 -118 -33 -203 -58 -85
-25 -174 -50 -197 -56 -41 -11 -43 -13 -62 -79 -31 -102 -31 -102 -146 -112
-55 -5 -101 -9 -103 -10 -1 0 -7 -11 -12 -25 -6 -15 -17 -25 -30 -25 -14 0
-20 -7 -20 -22 0 -25 -37 -93 -173 -318 -55 -91 -129 -214 -164 -275 -35 -60
-73 -119 -84 -131 -47 -50 -23 -55 188 -37 113 10 346 16 713 18 371 2 577 8
645 16 55 8 129 13 165 13 65 -1 65 -1 117 -52 l53 -52 178 0 178 0 46 29 c26
17 54 41 63 54 14 22 23 25 93 26 91 2 323 -20 316 -30 -6 -11 199 -18 731
-25 667 -9 624 -9 631 11 4 8 -12 46 -35 85 -65 109 -298 574 -316 633 -19 57
-37 77 -71 77 -12 0 -50 9 -84 20 -34 11 -78 20 -97 20 -45 0 -71 29 -103 116
l-25 68 -60 12 c-33 6 -145 36 -249 67 -225 67 -306 80 -491 79 -208 -1 -314
-34 -441 -139 l-43 -35 -43 35 c-48 39 -139 87 -208 110 -91 30 -262 43 -400
31z m315 -83 c157 -42 276 -116 290 -182 6 -25 14 -629 9 -629 -1 0 -58 38
-127 84 -135 90 -193 114 -342 142 -135 25 -365 15 -550 -25 -224 -47 -327
-74 -314 -82 7 -4 -3 -7 -22 -7 -19 0 -76 -7 -128 -16 -51 -9 -95 -15 -97 -13
-2 2 15 33 38 69 24 36 97 169 163 295 l120 230 165 47 c376 110 414 117 585
112 89 -3 155 -11 210 -25z m1006 14 c46 -8 145 -33 219 -55 74 -22 176 -51
225 -64 50 -14 97 -27 105 -31 14 -5 180 -332 264 -517 l35 -77 -37 6 c-46 7
-282 58 -382 83 -235 59 -532 77 -672 41 -125 -32 -295 -114 -355 -170 -12
-12 -27 -21 -33 -21 -9 0 -16 258 -15 551 1 88 4 93 88 155 134 99 347 137
558 99z m786 -347 c23 -26 53 -83 83 -159 11 -28 39 -88 62 -133 72 -141 85
-170 91 -203 4 -18 4 -33 1 -33 -15 0 -44 22 -44 34 0 7 -26 64 -59 127 -206
400 -201 389 -167 389 7 0 22 -10 33 -22z m-3007 -3 c0 -10 -50 -105 -55 -105
-2 0 0 12 5 28 l10 27 -18 -23 c-10 -13 -72 -122 -138 -244 -65 -121 -133
-235 -151 -254 -17 -18 -33 -39 -36 -46 -2 -7 -7 -11 -10 -8 -4 3 0 17 7 31 7
13 18 40 24 58 7 19 34 70 60 115 27 44 73 126 102 181 56 105 126 204 163
230 22 15 37 19 37 10z m58 -47 c-16 -29 -56 -101 -88 -159 -78 -143 -190
-313 -223 -339 l-28 -22 26 59 c14 32 41 82 61 111 19 29 71 121 116 205 110
206 104 197 137 197 l29 0 -30 -52z m3127 -78 c23 -52 75 -165 117 -250 42
-85 83 -175 93 -200 l17 -45 -36 34 c-42 41 -291 524 -282 548 3 8 15 13 28
11 16 -2 31 -25 63 -98z m-2238 -190 c193 -23 308 -56 368 -105 20 -16 20 -16
-2 -6 -26 13 -196 38 -319 47 -103 7 -393 -10 -539 -32 -368 -55 -409 -60
-529 -56 -43 2 -47 4 -35 18 9 11 25 14 63 11 60 -6 167 11 368 59 279 66 456
84 625 64z m1568 -34 c77 -14 217 -41 310 -59 94 -19 199 -40 235 -45 60 -10
56 -11 -55 -7 -66 3 -226 20 -355 39 -288 42 -439 52 -587 37 -122 -12 -284
-50 -330 -76 -28 -16 -28 -16 27 -11 30 3 96 12 145 21 133 23 376 30 514 15
64 -6 178 -25 254 -41 115 -24 160 -29 276 -28 75 0 151 -3 167 -6 58 -13 94
-27 94 -36 0 -16 34 -44 50 -42 8 2 38 -8 65 -22 l50 -26 -105 6 c-58 3 -126
6 -152 7 -26 0 -45 4 -42 9 3 5 -7 9 -21 9 -14 0 -24 4 -21 9 3 5 -10 12 -30
16 -56 10 -35 15 29 6 37 -5 54 -4 48 2 -5 5 -52 12 -103 14 -91 4 -189 14
-338 34 -276 37 -396 49 -477 49 -100 0 -284 -22 -374 -46 -62 -15 -169 -19
-169 -6 0 23 111 95 207 136 71 30 161 56 228 67 89 14 310 2 460 -25z m-1380
-97 c77 -10 160 -19 185 -19 50 0 102 -26 120 -61 12 -21 11 -21 -42 -14 -29
3 -111 18 -183 33 -117 24 -150 27 -330 26 -152 0 -240 -6 -365 -24 -91 -12
-173 -23 -182 -24 -10 0 -18 -3 -18 -6 0 -3 -21 -6 -48 -8 -148 -8 -285 -26
-347 -46 -111 -37 -212 -58 -235 -51 -19 6 -20 9 -9 20 16 14 135 45 174 45
14 0 25 4 25 8 0 5 -28 6 -62 4 -88 -6 -68 5 48 28 132 25 160 28 288 36 60 3
143 12 185 20 356 67 508 73 796 33z m28 -90 c56 -12 118 -25 137 -28 28 -5
34 -11 32 -26 -2 -11 -7 -24 -12 -29 -5 -5 -60 1 -127 14 -87 17 -157 23 -263
23 -204 1 -283 -5 -585 -49 -279 -41 -326 -45 -420 -38 l-90 7 115 29 c63 16
196 37 295 48 99 11 194 22 210 26 229 48 538 58 708 23z m1352 -9 c77 -11
193 -27 258 -35 184 -23 248 -36 267 -55 10 -10 24 -20 31 -24 26 -11 -330 20
-611 54 -214 25 -397 26 -570 0 -74 -11 -136 -20 -137 -20 -1 0 -17 14 -35 30
l-32 30 36 0 c20 0 66 7 103 15 36 9 98 20 138 25 107 13 393 3 552 -20z
m-1155 -12 c0 -6 -10 -8 -22 -4 -13 3 -29 6 -35 6 -7 0 -13 4 -13 8 0 4 16 6
35 4 19 -2 35 -9 35 -14z m225 -32 c19 -8 56 -29 81 -47 42 -28 51 -31 76 -21
l29 11 -34 -47 c-18 -26 -44 -53 -58 -59 -16 -9 -75 -13 -176 -13 l-152 0 -37
46 c-21 25 -47 50 -59 54 -18 8 -17 9 8 9 15 1 30 -5 33 -13 7 -18 33 -8 113
42 91 57 117 62 176 38z m-456 -65 c88 -11 111 -21 89 -38 -15 -12 -972 -25
-1003 -14 -12 5 17 10 75 14 98 6 391 45 400 53 7 8 348 -4 439 -15z m1381
-16 c125 -10 310 -14 569 -12 l384 2 8 -23 9 -23 -328 2 c-591 3 -1361 23
-1327 35 6 2 60 13 120 24 123 22 227 21 565 -5z m-2470 -15 c23 -1 23 -2 7
-11 -16 -9 -504 -30 -516 -22 -10 7 23 32 47 36 22 4 197 3 462 -3z"/>
<path d="M3578 1413 c12 -2 32 -2 45 0 12 2 2 4 -23 4 -25 0 -35 -2 -22 -4z"/>
<path d="M3717 1396 c85 -16 155 -39 242 -78 35 -16 66 -26 68 -24 7 6 -165
86 -185 86 -10 0 -23 5 -29 11 -6 6 -46 12 -89 15 l-79 4 72 -14z"/>
<path d="M3248 1303 c7 -3 16 -2 19 1 4 3 -2 6 -13 5 -11 0 -14 -3 -6 -6z"/>
<path d="M3145 1285 c-53 -17 -23 -18 40 0 29 8 39 14 25 14 -14 0 -43 -6 -65
-14z"/>
<path d="M3018 1246 c-79 -25 -99 -39 -31 -21 59 16 103 33 103 40 0 3 -1 5
-2 4 -2 -1 -33 -11 -70 -23z"/>
<path d="M3505 1153 c-88 -5 -275 -35 -281 -44 -3 -5 -14 -9 -25 -9 -24 0
-330 -99 -343 -111 -21 -19 30 -7 207 46 236 72 314 85 506 85 189 0 267 -15
375 -70 44 -22 81 -38 83 -36 18 18 -53 65 -144 97 -94 32 -255 50 -378 42z"/>
<path d="M4605 1375 c-69 -15 -120 -33 -113 -40 3 -3 22 2 43 10 20 9 78 22
129 30 63 9 77 13 46 13 -25 0 -72 -6 -105 -13z"/>
<path d="M5083 1323 c9 -2 23 -2 30 0 6 3 -1 5 -18 5 -16 0 -22 -2 -12 -5z"/>
<path d="M4649 1129 c-102 -15 -210 -75 -241 -134 -10 -19 -10 -19 8 -4 37 32
130 78 204 101 66 20 96 23 245 23 171 0 287 -6 279 -15 -6 -5 193 -60 216
-59 24 0 -78 37 -139 50 -31 6 -59 15 -62 20 -16 26 -370 39 -510 18z"/>
<path d="M1510 1448 c-36 -6 -308 -11 -605 -11 -471 -2 -544 -4 -575 -18 -19
-9 -41 -23 -48 -32 -11 -13 -10 -18 9 -30 20 -15 21 -21 15 -104 -7 -82 -5
-91 14 -116 50 -63 36 -62 585 -65 427 -3 511 -1 568 12 78 18 142 49 155 74
5 9 12 81 15 160 l5 142 -36 -1 c-21 -1 -66 -6 -102 -11z m89 -120 c-1 -118
-35 -163 -128 -170 -42 -3 -45 -1 -53 27 -12 40 -2 155 15 173 13 13 83 28
140 31 27 1 27 0 26 -61z m-239 -18 l0 -61 -477 2 c-263 2 -489 -1 -502 -5
-24 -8 -24 -8 -17 40 3 26 11 53 17 59 6 6 162 12 437 15 235 3 453 6 485 8
l57 2 0 -60z m-12 -106 c6 -2 12 -17 12 -34 l0 -30 -432 1 c-238 1 -458 4
-488 7 -47 6 -55 10 -58 29 -4 29 11 32 178 36 167 3 770 -3 788 -9z"/>
<path d="M7143 1194 c-2 -7 -3 -23 -1 -36 l3 -23 228 4 227 3 0 -162 0 -163
-222 4 -223 4 0 -24 c0 -19 7 -27 30 -33 22 -6 1671 -5 2214 1 l43 1 -7 33
c-4 17 -8 102 -9 187 -1 152 -1 155 22 165 26 12 29 30 5 41 -10 5 -533 9
-1162 9 -890 1 -1144 -2 -1148 -11z m1735 -209 l2 -160 -546 0 -546 0 -3 157
-3 158 512 3 c281 1 527 2 546 2 l35 0 3 -160z m140 3 l3 -158 -41 0 -40 0 0
154 c0 164 1 167 50 163 l25 -2 3 -157z m-1288 -8 l0 -160 -35 0 -35 0 0 160
0 160 35 0 35 0 0 -160z m1632 0 l1 -155 -139 0 -139 0 -3 158 -3 158 142 -3
141 -3 0 -155z"/>
<path d="M1510 1022 l-75 -27 -580 0 c-319 -1 -593 -4 -609 -8 -27 -8 -28 -10
-22 -50 14 -95 17 -187 7 -205 -7 -14 -6 -24 4 -38 13 -18 35 -19 617 -16 332
1 620 5 640 8 47 7 156 77 167 107 5 13 5 45 1 73 -5 27 -11 79 -15 117 -6 65
-8 67 -33 66 -15 -1 -61 -13 -102 -27z m104 -54 c3 -13 7 -48 9 -78 4 -50 2
-57 -24 -81 -34 -32 -90 -60 -126 -62 -23 -2 -29 4 -39 38 -31 100 -11 141 88
182 68 28 86 28 92 1z m-292 -46 c55 -4 56 -4 63 -39 3 -19 4 -37 1 -40 -2 -3
-123 -4 -268 -2 -145 2 -390 3 -545 4 -155 0 -284 3 -288 7 -4 4 -4 23 -1 43
l7 36 487 -2 c268 -2 512 -4 544 -7z m50 -127 c17 -7 12 -55 -6 -56 -25 -1
-1071 2 -1072 4 -1 1 0 14 3 29 3 17 13 28 27 31 31 6 1031 -2 1048 -8z"/>
<path d="M6920 611 c0 -13 9 -20 30 -23 36 -5 55 5 47 26 -4 10 -19 16 -42 16
-28 0 -35 -4 -35 -19z"/>
<path d="M7123 614 c-3 -9 0 -20 7 -24 20 -12 50 1 50 21 0 24 -48 26 -57 3z"/>
<path d="M7310 608 c0 -20 5 -23 37 -23 44 0 55 21 18 35 -41 15 -55 12 -55
-12z"/>
<path d="M7543 623 c-7 -2 -13 -11 -13 -19 0 -10 13 -14 45 -14 32 0 45 4 45
14 0 22 -44 33 -77 19z"/>
<path d="M7767 623 c-4 -3 -7 -15 -7 -25 0 -14 8 -18 40 -18 33 0 40 4 40 19
0 26 -54 44 -73 24z"/>
<path d="M7981 622 c-6 -2 -11 -12 -11 -23 0 -15 7 -19 35 -19 31 0 35 3 35
25 0 20 -5 24 -24 23 -13 -1 -29 -4 -35 -6z"/>
<path d="M8162 608 c2 -17 11 -24 31 -26 23 -3 27 0 27 22 0 22 -4 26 -31 26
-26 0 -30 -3 -27 -22z"/>
<path d="M8347 624 c-4 -4 -7 -16 -7 -26 0 -14 8 -18 41 -18 36 0 40 2 37 23
-2 16 -11 23 -33 25 -17 2 -34 0 -38 -4z"/>
<path d="M8550 611 c0 -26 15 -34 46 -27 15 4 24 14 24 26 0 16 -7 20 -35 20
-28 0 -35 -4 -35 -19z"/>
<path d="M8772 608 c2 -18 10 -23 33 -23 23 0 31 5 33 23 3 19 -1 22 -33 22
-32 0 -36 -3 -33 -22z"/>
<path d="M8973 614 c-9 -23 7 -34 48 -34 34 0 39 3 39 23 0 19 -5 22 -41 23
-25 1 -43 -3 -46 -12z"/>
<path d="M9174 615 c-8 -19 3 -35 25 -35 22 0 45 25 36 40 -9 15 -55 12 -61
-5z"/>
<path d="M9360 609 c0 -17 5 -20 32 -17 22 2 34 9 36 21 3 14 -4 17 -32 17
-30 0 -36 -4 -36 -21z"/>
<path d="M9670 610 c-12 -8 -11 -10 8 -10 12 0 22 5 22 10 0 13 -11 13 -30 0z"/>
</g>
</svg>
